<svg width="62" height="38" viewBox="0 0 62 38" fill="none" xmlns="http://www.w3.org/2000/svg">
<path d="M36.4887 7.96135C34.3057 7.03135 31.3727 6.43135 28.2387 6.26635C27.7387 6.23635 27.2517 6.22635 26.7887 6.22635C29.1067 3.39635 31.5907 1.49635 33.2257 1.43635C33.5477 1.42335 33.8207 1.49135 34.0387 1.63235C34.7447 2.09035 34.9437 3.40035 34.5837 5.22235C34.5437 5.47235 34.7037 5.71535 34.9437 5.76235C35.1937 5.81235 35.4337 5.65235 35.4837 5.40235C35.9337 3.12235 35.6037 1.55635 34.5437 0.864347C34.1637 0.616347 33.7037 0.499347 33.1937 0.518347C31.1437 0.595347 28.2537 2.81835 25.6037 6.23835C24.4497 6.27335 23.3637 6.36835 22.3717 6.52535C21.7257 3.62835 21.9817 1.54835 22.9657 1.04835C23.1037 0.975347 23.2507 0.938347 23.4227 0.924347C24.1197 0.870347 25.0827 1.31935 26.1327 2.19435C26.3267 2.35435 26.6187 2.33435 26.7787 2.13435C26.8172 2.08806 26.8461 2.03466 26.8639 1.97719C26.8816 1.91972 26.8879 1.85931 26.8823 1.79942C26.8768 1.73952 26.8595 1.68131 26.8314 1.62811C26.8033 1.57491 26.765 1.52775 26.7187 1.48935C25.4587 0.446347 24.2967 -0.0636534 23.3467 0.00634657C23.0677 0.0289469 22.7953 0.103564 22.5437 0.226346C21.3537 0.833346 20.8737 2.55335 21.1737 5.06435C21.2437 5.58435 21.3337 6.12635 21.4637 6.68435C18.1827 7.34035 16.0927 8.65435 16.0027 10.3083C15.9427 11.4783 16.8677 12.5923 18.6827 13.5303C18.7367 13.5631 18.7968 13.5844 18.8594 13.5929C18.9219 13.6014 18.9855 13.5969 19.0463 13.5798C19.107 13.5626 19.1636 13.5332 19.2125 13.4932C19.2614 13.4533 19.3015 13.4037 19.3304 13.3476C19.3593 13.2915 19.3763 13.23 19.3804 13.167C19.3845 13.104 19.3756 13.0409 19.3542 12.9815C19.3329 12.9221 19.2995 12.8677 19.2563 12.8218C19.213 12.7758 19.1607 12.7392 19.1027 12.7143C17.6527 11.9673 16.8727 11.1263 16.9197 10.3563C16.9697 9.27635 18.6917 8.16635 21.6797 7.57635C21.9497 8.57035 22.2997 9.60835 22.7297 10.6663C21.7117 12.5543 20.9737 14.4133 20.5927 16.0663C20.0327 18.5313 20.3327 20.2863 21.4527 21.0143C21.8127 21.2483 22.2327 21.3643 22.6997 21.3643C23.6347 21.3643 24.7667 20.9043 26.0467 19.9923C26.0987 19.9588 26.1433 19.9151 26.1779 19.8638C26.2125 19.8125 26.2364 19.7548 26.248 19.694C26.2597 19.6333 26.2589 19.5708 26.2458 19.5104C26.2327 19.4499 26.2074 19.3928 26.1716 19.3424C26.1358 19.2919 26.0901 19.2493 26.0374 19.217C25.9846 19.1847 25.9259 19.1634 25.8647 19.1545C25.8035 19.1455 25.7411 19.149 25.6813 19.1648C25.6215 19.1806 25.5655 19.2083 25.5167 19.2463C23.9727 20.3493 22.6727 20.7183 21.9547 20.2493C21.1947 19.7543 21.0287 18.3063 21.4947 16.2733C21.8147 14.8873 22.4017 13.3433 23.2027 11.7533C23.4027 12.1913 23.6127 12.6293 23.8327 13.0663C25.2577 15.8623 27.0027 18.2933 28.7427 19.9113C30.1287 21.2013 31.4167 21.8743 32.4777 21.8743C32.8277 21.8743 33.1577 21.7993 33.4537 21.6513C34.5987 21.0663 35.0937 19.4413 34.8517 17.0763C34.6277 14.8633 33.7917 12.1663 32.4977 9.47635C32.4431 9.36979 32.3491 9.28873 32.2357 9.25038C32.1223 9.21203 31.9984 9.21942 31.8903 9.27098C31.7822 9.32254 31.6985 9.4142 31.657 9.52649C31.6154 9.63879 31.6193 9.76286 31.6677 9.87235C34.3577 15.4743 34.5477 20.0623 33.0377 20.8323C31.4477 21.6453 27.6137 18.4773 24.6477 12.6523C24.3077 11.9973 24.0107 11.3523 23.7477 10.7223C24.0877 10.1143 24.4477 9.50235 24.8427 8.89235C25.2377 8.28835 25.6487 7.70435 26.0667 7.14735H26.4607C27.0007 7.14735 27.5867 7.15735 28.1947 7.19535C34.7247 7.53835 39.1697 9.75535 39.0787 11.5293C39.0387 12.2943 38.1547 13.0673 36.6537 13.6493C36.5409 13.6948 36.4505 13.7827 36.4019 13.8942C36.3533 14.0056 36.3503 14.1317 36.3937 14.2453C36.4151 14.3018 36.4475 14.3534 36.489 14.3972C36.5304 14.441 36.5802 14.4761 36.6354 14.5005C36.6906 14.5249 36.7501 14.538 36.8104 14.5392C36.8707 14.5404 36.9306 14.5295 36.9867 14.5073C38.8917 13.7673 39.9367 12.7513 39.9967 11.5773C40.0667 10.2473 38.8267 8.96735 36.4967 7.97735V7.96735L36.4887 7.96135ZM24.0727 8.38635C23.8027 8.80135 23.5527 9.21335 23.3087 9.63035C23.0315 8.90433 22.7902 8.16511 22.5857 7.41535C23.2987 7.30535 24.0707 7.22535 24.8957 7.17535C24.6157 7.56535 24.3417 7.96935 24.0757 8.38535V8.37535L24.0727 8.38635ZM27.9977 9.56135C27.6331 9.56135 27.2833 9.70621 27.0255 9.96407C26.7676 10.2219 26.6227 10.5717 26.6227 10.9363C26.6227 11.301 26.7676 11.6508 27.0255 11.9086C27.2833 12.1665 27.6331 12.3113 27.9977 12.3113C28.3624 12.3113 28.7122 12.1665 28.97 11.9086C29.2279 11.6508 29.3727 11.301 29.3727 10.9363C29.3727 10.5717 29.2279 10.2219 28.97 9.96407C28.7122 9.70621 28.3624 9.56135 27.9977 9.56135V9.56135Z" fill="#699BF7"/>
<path d="M0.958807 36V27.2727H4.0696C4.74574 27.2727 5.30682 27.3892 5.75284 27.6222C6.2017 27.8551 6.53693 28.1776 6.75852 28.5895C6.98011 28.9986 7.09091 29.4716 7.09091 30.0085C7.09091 30.5426 6.97869 31.0128 6.75426 31.419C6.53267 31.8224 6.19744 32.1364 5.74858 32.3608C5.30256 32.5852 4.74148 32.6974 4.06534 32.6974H1.70881V31.5639H3.94602C4.37216 31.5639 4.71875 31.5028 4.9858 31.3807C5.25568 31.2585 5.45312 31.081 5.57812 30.848C5.70312 30.6151 5.76562 30.3352 5.76562 30.0085C5.76562 29.679 5.7017 29.3935 5.57386 29.152C5.44886 28.9105 5.25142 28.7259 4.98153 28.598C4.71449 28.4673 4.36364 28.402 3.92898 28.402H2.27557V36H0.958807ZM5.26705 32.0625L7.4233 36H5.9233L3.80966 32.0625H5.26705ZM9.41318 36V27.2727H14.8848V28.4062H10.7299V31.0653H14.5993V32.1946H10.7299V34.8665H14.9359V36H9.41318ZM18.1009 36H16.7031L19.8438 27.2727H21.3651L24.5057 36H23.108L20.6406 28.858H20.5725L18.1009 36ZM18.3352 32.5824H22.8693V33.6903H18.3352V32.5824ZM33.3244 30.1108H31.9949C31.9437 29.8267 31.8486 29.5767 31.7094 29.3608C31.5702 29.1449 31.3997 28.9616 31.198 28.8111C30.9963 28.6605 30.7704 28.5469 30.5204 28.4702C30.2733 28.3935 30.0105 28.3551 29.7321 28.3551C29.2292 28.3551 28.779 28.4815 28.3812 28.7344C27.9863 28.9872 27.6738 29.358 27.4437 29.8466C27.2165 30.3352 27.1028 30.9318 27.1028 31.6364C27.1028 32.3466 27.2165 32.946 27.4437 33.4347C27.6738 33.9233 27.9878 34.2926 28.3855 34.5426C28.7832 34.7926 29.2307 34.9176 29.7278 34.9176C30.0034 34.9176 30.2648 34.8807 30.5119 34.8068C30.7619 34.7301 30.9878 34.6179 31.1895 34.4702C31.3912 34.3224 31.5616 34.142 31.7008 33.929C31.8429 33.7131 31.9409 33.4659 31.9949 33.1875L33.3244 33.1918C33.2534 33.6207 33.1156 34.0156 32.9111 34.3764C32.7094 34.7344 32.4494 35.044 32.1312 35.3054C31.8159 35.5639 31.4551 35.7642 31.0488 35.9062C30.6426 36.0483 30.1994 36.1193 29.7193 36.1193C28.9636 36.1193 28.2903 35.9403 27.6994 35.5824C27.1085 35.2216 26.6426 34.706 26.3017 34.0355C25.9636 33.3651 25.7946 32.5653 25.7946 31.6364C25.7946 30.7045 25.965 29.9048 26.306 29.2372C26.6469 28.5668 27.1128 28.0526 27.7037 27.6946C28.2946 27.3338 28.9665 27.1534 29.7193 27.1534C30.1824 27.1534 30.6142 27.2202 31.0148 27.3537C31.4182 27.4844 31.7804 27.6776 32.1014 27.9332C32.4224 28.1861 32.6881 28.4957 32.8983 28.8622C33.1085 29.2259 33.2506 29.642 33.3244 30.1108ZM35.1897 28.4062V27.2727H41.9439V28.4062H39.2209V36H37.9084V28.4062H35.1897Z" fill="#3A8397"/>
<path d="M44.1565 36V27.2727H47.2673C47.9434 27.2727 48.5045 27.3892 48.9505 27.6222C49.3994 27.8551 49.7346 28.1776 49.9562 28.5895C50.1778 28.9986 50.2886 29.4716 50.2886 30.0085C50.2886 30.5426 50.1763 31.0128 49.9519 31.419C49.7303 31.8224 49.3951 32.1364 48.9462 32.3608C48.5002 32.5852 47.9391 32.6974 47.263 32.6974H44.9065V31.5639H47.1437C47.5698 31.5639 47.9164 31.5028 48.1835 31.3807C48.4533 31.2585 48.6508 31.081 48.7758 30.848C48.9008 30.6151 48.9633 30.3352 48.9633 30.0085C48.9633 29.679 48.8994 29.3935 48.7715 29.152C48.6465 28.9105 48.4491 28.7259 48.1792 28.598C47.9121 28.4673 47.5613 28.402 47.1266 28.402H45.4732V36H44.1565ZM48.4647 32.0625L50.621 36H49.121L47.0073 32.0625H48.4647ZM53.3481 36H51.9503L55.091 27.2727H56.6123L59.7529 36H58.3552L55.8878 28.858H55.8196L53.3481 36ZM53.5824 32.5824H58.1165V33.6903H53.5824V32.5824Z" fill="#A7C749"/>
<path d="M44.1565 36V27.2727H47.2673C47.9434 27.2727 48.5045 27.3892 48.9505 27.6222C49.3994 27.8551 49.7346 28.1776 49.9562 28.5895C50.1778 28.9986 50.2886 29.4716 50.2886 30.0085C50.2886 30.5426 50.1763 31.0128 49.9519 31.419C49.7303 31.8224 49.3951 32.1364 48.9462 32.3608C48.5002 32.5852 47.9391 32.6974 47.263 32.6974H44.9065V31.5639H47.1437C47.5698 31.5639 47.9164 31.5028 48.1835 31.3807C48.4533 31.2585 48.6508 31.081 48.7758 30.848C48.9008 30.6151 48.9633 30.3352 48.9633 30.0085C48.9633 29.679 48.8994 29.3935 48.7715 29.152C48.6465 28.9105 48.4491 28.7259 48.1792 28.598C47.9121 28.4673 47.5613 28.402 47.1266 28.402H45.4732V36H44.1565ZM48.4647 32.0625L50.621 36H49.121L47.0073 32.0625H48.4647ZM53.3481 36H51.9503L55.091 27.2727H56.6123L59.7529 36H58.3552L55.8878 28.858H55.8196L53.3481 36ZM53.5824 32.5824H58.1165V33.6903H53.5824V32.5824Z" fill="black" fill-opacity="0.2"/>
</svg>
