<svg width="60" height="10" viewBox="0 0 60 10" fill="none" xmlns="http://www.w3.org/2000/svg">
<path d="M0.958807 9V0.272727H4.0696C4.74574 0.272727 5.30682 0.389204 5.75284 0.622159C6.2017 0.855113 6.53693 1.17756 6.75852 1.58949C6.98011 1.99858 7.09091 2.47159 7.09091 3.00852C7.09091 3.54261 6.97869 4.01278 6.75426 4.41903C6.53267 4.82244 6.19744 5.13636 5.74858 5.3608C5.30256 5.58523 4.74148 5.69744 4.06534 5.69744H1.70881V4.56392H3.94602C4.37216 4.56392 4.71875 4.50284 4.9858 4.38068C5.25568 4.25852 5.45312 4.08097 5.57812 3.84801C5.70312 3.61506 5.76562 3.33523 5.76562 3.00852C5.76562 2.67898 5.7017 2.39347 5.57386 2.15199C5.44886 1.91051 5.25142 1.72585 4.98153 1.59801C4.71449 1.46733 4.36364 1.40199 3.92898 1.40199H2.27557V9H0.958807ZM5.26705 5.0625L7.4233 9H5.9233L3.80966 5.0625H5.26705ZM9.41318 9V0.272727H14.8848V1.40625H10.7299V4.06534H14.5993V5.1946H10.7299V7.86648H14.9359V9H9.41318ZM18.1009 9H16.7031L19.8438 0.272727H21.3651L24.5057 9H23.108L20.6406 1.85795H20.5725L18.1009 9ZM18.3352 5.58239H22.8693V6.69034H18.3352V5.58239ZM33.3244 3.1108H31.9949C31.9437 2.8267 31.8486 2.5767 31.7094 2.3608C31.5702 2.14489 31.3997 1.96165 31.198 1.81108C30.9963 1.66051 30.7704 1.54687 30.5204 1.47017C30.2733 1.39347 30.0105 1.35511 29.7321 1.35511C29.2292 1.35511 28.779 1.48153 28.3812 1.73438C27.9863 1.98722 27.6738 2.35795 27.4437 2.84659C27.2165 3.33523 27.1028 3.93182 27.1028 4.63636C27.1028 5.34659 27.2165 5.94602 27.4437 6.43466C27.6738 6.9233 27.9878 7.29261 28.3855 7.54261C28.7832 7.79261 29.2307 7.91761 29.7278 7.91761C30.0034 7.91761 30.2648 7.88068 30.5119 7.80682C30.7619 7.73011 30.9878 7.6179 31.1895 7.47017C31.3912 7.32244 31.5616 7.14205 31.7008 6.92898C31.8429 6.71307 31.9409 6.46591 31.9949 6.1875L33.3244 6.19176C33.2534 6.62074 33.1156 7.01562 32.9111 7.37642C32.7094 7.73438 32.4494 8.04403 32.1312 8.3054C31.8159 8.56392 31.4551 8.7642 31.0488 8.90625C30.6426 9.0483 30.1994 9.11932 29.7193 9.11932C28.9636 9.11932 28.2903 8.94034 27.6994 8.58239C27.1085 8.22159 26.6426 7.70597 26.3017 7.03551C25.9636 6.36506 25.7946 5.56534 25.7946 4.63636C25.7946 3.70455 25.965 2.90483 26.306 2.23722C26.6469 1.56676 27.1128 1.05256 27.7037 0.694602C28.2946 0.333807 28.9665 0.153409 29.7193 0.153409C30.1824 0.153409 30.6142 0.22017 31.0148 0.353693C31.4182 0.484375 31.7804 0.677557 32.1014 0.933239C32.4224 1.18608 32.6881 1.49574 32.8983 1.86222C33.1085 2.22585 33.2506 2.64205 33.3244 3.1108ZM35.1897 1.40625V0.272727H41.9439V1.40625H39.2209V9H37.9084V1.40625H35.1897Z" fill="#3A8397"/>
<path d="M44.1565 9V0.272727H47.2673C47.9434 0.272727 48.5045 0.389204 48.9505 0.622159C49.3994 0.855113 49.7346 1.17756 49.9562 1.58949C50.1778 1.99858 50.2886 2.47159 50.2886 3.00852C50.2886 3.54261 50.1763 4.01278 49.9519 4.41903C49.7303 4.82244 49.3951 5.13636 48.9462 5.3608C48.5002 5.58523 47.9391 5.69744 47.263 5.69744H44.9065V4.56392H47.1437C47.5698 4.56392 47.9164 4.50284 48.1835 4.38068C48.4533 4.25852 48.6508 4.08097 48.7758 3.84801C48.9008 3.61506 48.9633 3.33523 48.9633 3.00852C48.9633 2.67898 48.8994 2.39347 48.7715 2.15199C48.6465 1.91051 48.4491 1.72585 48.1792 1.59801C47.9121 1.46733 47.5613 1.40199 47.1266 1.40199H45.4732V9H44.1565ZM48.4647 5.0625L50.621 9H49.121L47.0073 5.0625H48.4647ZM53.3481 9H51.9503L55.091 0.272727H56.6123L59.7529 9H58.3552L55.8878 1.85795H55.8196L53.3481 9ZM53.5824 5.58239H58.1165V6.69034H53.5824V5.58239Z" fill="#A7C749"/>
<path d="M44.1565 9V0.272727H47.2673C47.9434 0.272727 48.5045 0.389204 48.9505 0.622159C49.3994 0.855113 49.7346 1.17756 49.9562 1.58949C50.1778 1.99858 50.2886 2.47159 50.2886 3.00852C50.2886 3.54261 50.1763 4.01278 49.9519 4.41903C49.7303 4.82244 49.3951 5.13636 48.9462 5.3608C48.5002 5.58523 47.9391 5.69744 47.263 5.69744H44.9065V4.56392H47.1437C47.5698 4.56392 47.9164 4.50284 48.1835 4.38068C48.4533 4.25852 48.6508 4.08097 48.7758 3.84801C48.9008 3.61506 48.9633 3.33523 48.9633 3.00852C48.9633 2.67898 48.8994 2.39347 48.7715 2.15199C48.6465 1.91051 48.4491 1.72585 48.1792 1.59801C47.9121 1.46733 47.5613 1.40199 47.1266 1.40199H45.4732V9H44.1565ZM48.4647 5.0625L50.621 9H49.121L47.0073 5.0625H48.4647ZM53.3481 9H51.9503L55.091 0.272727H56.6123L59.7529 9H58.3552L55.8878 1.85795H55.8196L53.3481 9ZM53.5824 5.58239H58.1165V6.69034H53.5824V5.58239Z" fill="black" fill-opacity="0.2"/>
</svg>
